# xmcd
#
# Track frame offsets: 
#        150
#        20364
#        41865
#        49296
#        61614
#        77110
#        90571
#        110905
#        127260
#        143001
#        158704
#        165808
#        182483
#        186788
#        196909
#        217430
#        231119
#        242880
#        252473
#        262804
#        271571
#        285191
#        295737
#
# Disc length: 4105 seconds
#
# Revision: 2
# Processed by: cddbd v1.5.2PL0 Copyright (c) Steve Scherf et al.
# Submitted via: ExactAudioCopy v0.95b4
#
DISCID=45100717
DTITLE=Various Artist - There Is No Eye: Music For Photographs
DYEAR=2001
DGENRE=Country
TTITLE0=Gospel Church, Harlem - Thank You, Lord
TTITLE1=Reverend Gary Davis - If I Had My Way
TTITLE2=Yvonne Hunter - Have You Ever Been Mistreated
TTITLE3=Muddy Waters - I Can't Be Satisfied
TTITLE4=Bob Dylan - Roll On John
TTITLE5=Roscoe Holcomb - Man Of Constant Sorrow
TTITLE6=Doc Watson and Gaither Carlton - Hicks Farewell
TTITLE7=Carter Stanley - Come All You Tenderhearted
TTITLE8=Mary Townsley - Young But Growing
TTITLE9=Alice Gerard and Hazel Dickens - TB Blues
TTITLE10=Bill Monroe - John Henry
TTITLE11=Eck Robertson - Sally Goodin
TTITLE12=Sidna Myers - Twin Sisters
TTITLE13=Wade Ward and Charlie Higgins - Sally Johnson
TTITLE14=David Amram Quartet - Pull My Daisy
TTITLE15=Rufus Cohen and Wade Patterson - So Long Go
TTITLE16=Last Forever - Who'll Water My Flowers?
TTITLE17=Elizabeth Cotten - Oh Babe, It Ain't No Lie
TTITLE18=Woodie Guthrie - Ramblin' Round
TTITLE19=Alan Lomax - Love My Darling-O
TTITLE20=New Lost City Ramblers - Buck Creek Girls
TTITLE21=Huayno stringband - Paloma Blanca
TTITLE22=Sweet's Mill Band - Kitchen Girl
EXTD=
EXTT0=
EXTT1=
EXTT2=
EXTT3=
EXTT4=
EXTT5=
EXTT6=
EXTT7=
EXTT8=
EXTT9=
EXTT10=
EXTT11=
EXTT12=
EXTT13=
EXTT14=
EXTT15=
EXTT16=
EXTT17=
EXTT18=
EXTT19=
EXTT20=
EXTT21=
EXTT22=
PLAYORDER=
